name rise36.2859peak64.2979fall75.1499.mot
datacolumns 19
datarows 27
range 11.59995700000000 11.64328600000000
endheader
time	ground_force1_vx	ground_force1_vy	ground_force1_vz	ground_force1_px	ground_force1_py	ground_force1_pz	ground_force2_vx	ground_force2_vy	ground_force2_vz	ground_force2_px	ground_force2_py	ground_force2_pz	ground_torque1_x	ground_torque1_y	ground_torque1_z	ground_torque2_x	ground_torque2_y	ground_torque2_z	
11.59995700000000	16.77775700000000	691.19226500000002	44.35944500000000	0.30827500000000	0.00000000000000	0.09268700000000	0.00000000000000	0.00000000000000	0.00000000000000	0.00000000000000	0.00000000000000	0.00000000000000	0.00000000000000	25.43217400000000	0.00000000000000	0.00000000000000	0.00000000000000	0.00000000000000	
11.60161900000000	16.44157500000000	691.73409200000003	44.39708300000000	0.30764300000000	0.00000000000000	0.09264200000000	0.00000000000000	0.00000000000000	0.00000000000000	0.00000000000000	0.00000000000000	0.00000000000000	0.00000000000000	25.48637600000000	0.00000000000000	0.00000000000000	0.00000000000000	0.00000000000000	
11.60329400000000	16.09723700000000	692.32184800000005	44.43854000000000	0.30701500000000	0.00000000000000	0.09259500000000	0.00000000000000	0.00000000000000	0.00000000000000	0.00000000000000	0.00000000000000	0.00000000000000	0.00000000000000	25.54552600000000	0.00000000000000	0.00000000000000	0.00000000000000	0.00000000000000	
11.60496500000000	15.74434700000000	692.95479999999998	44.48352400000000	0.30639000000000	0.00000000000000	0.09254800000000	0.00000000000000	0.00000000000000	0.00000000000000	0.00000000000000	0.00000000000000	0.00000000000000	0.00000000000000	25.60942800000000	0.00000000000000	0.00000000000000	0.00000000000000	0.00000000000000	
11.60662500000000	15.38253300000000	693.63223900000003	44.53175300000000	0.30576600000000	0.00000000000000	0.09250100000000	0.00000000000000	0.00000000000000	0.00000000000000	0.00000000000000	0.00000000000000	0.00000000000000	0.00000000000000	25.67789100000000	0.00000000000000	0.00000000000000	0.00000000000000	0.00000000000000	
11.60829400000000	15.01144700000000	694.35348799999997	44.58295400000000	0.30514100000000	0.00000000000000	0.09245300000000	0.00000000000000	0.00000000000000	0.00000000000000	0.00000000000000	0.00000000000000	0.00000000000000	0.00000000000000	25.75072300000000	0.00000000000000	0.00000000000000	0.00000000000000	0.00000000000000	
11.60995800000000	14.63076300000000	695.11789699999997	44.63686500000000	0.30451500000000	0.00000000000000	0.09240500000000	0.00000000000000	0.00000000000000	0.00000000000000	0.00000000000000	0.00000000000000	0.00000000000000	0.00000000000000	25.82773600000000	0.00000000000000	0.00000000000000	0.00000000000000	0.00000000000000	
11.61162600000000	14.24018000000000	695.92484200000001	44.69324000000000	0.30388600000000	0.00000000000000	0.09235600000000	0.00000000000000	0.00000000000000	0.00000000000000	0.00000000000000	0.00000000000000	0.00000000000000	0.00000000000000	25.90874300000000	0.00000000000000	0.00000000000000	0.00000000000000	0.00000000000000	
11.61328600000000	13.83942200000000	696.77373000000000	44.75184100000000	0.30325300000000	0.00000000000000	0.09230800000000	0.00000000000000	0.00000000000000	0.00000000000000	0.00000000000000	0.00000000000000	0.00000000000000	0.00000000000000	25.99356400000000	0.00000000000000	0.00000000000000	0.00000000000000	0.00000000000000	
11.61496700000000	13.42823900000000	697.66399300000000	44.81245000000000	0.30261300000000	0.00000000000000	0.09225900000000	0.00000000000000	0.00000000000000	0.00000000000000	0.00000000000000	0.00000000000000	0.00000000000000	0.00000000000000	26.08201900000000	0.00000000000000	0.00000000000000	0.00000000000000	0.00000000000000	
11.61662200000000	13.00640800000000	698.59508900000003	44.87486100000000	0.30196700000000	0.00000000000000	0.09221000000000	0.00000000000000	0.00000000000000	0.00000000000000	0.00000000000000	0.00000000000000	0.00000000000000	0.00000000000000	26.17393800000000	0.00000000000000	0.00000000000000	0.00000000000000	0.00000000000000	
11.61829400000000	12.57373200000000	699.56650000000002	44.93888800000000	0.30131300000000	0.00000000000000	0.09216200000000	0.00000000000000	0.00000000000000	0.00000000000000	0.00000000000000	0.00000000000000	0.00000000000000	0.00000000000000	26.26915400000000	0.00000000000000	0.00000000000000	0.00000000000000	0.00000000000000	
11.61995200000000	12.13004300000000	700.57773099999997	45.00436000000000	0.30064900000000	0.00000000000000	0.09211300000000	0.00000000000000	0.00000000000000	0.00000000000000	0.00000000000000	0.00000000000000	0.00000000000000	0.00000000000000	26.36750500000000	0.00000000000000	0.00000000000000	0.00000000000000	0.00000000000000	
11.62162700000000	11.67520100000000	701.62830799999995	45.07112700000000	0.29997600000000	0.00000000000000	0.09206500000000	0.00000000000000	0.00000000000000	0.00000000000000	0.00000000000000	0.00000000000000	0.00000000000000	0.00000000000000	26.46883800000000	0.00000000000000	0.00000000000000	0.00000000000000	0.00000000000000	
11.62329100000000	11.20909500000000	702.71777099999997	45.13905600000000	0.29929100000000	0.00000000000000	0.09201700000000	0.00000000000000	0.00000000000000	0.00000000000000	0.00000000000000	0.00000000000000	0.00000000000000	0.00000000000000	26.57300800000000	0.00000000000000	0.00000000000000	0.00000000000000	0.00000000000000	
11.62495200000000	10.73164300000000	703.84567900000002	45.20803700000000	0.29859300000000	0.00000000000000	0.09197000000000	0.00000000000000	0.00000000000000	0.00000000000000	0.00000000000000	0.00000000000000	0.00000000000000	0.00000000000000	26.67987300000000	0.00000000000000	0.00000000000000	0.00000000000000	0.00000000000000	
11.62662800000000	10.24279100000000	705.01160100000004	45.27798000000000	0.29788300000000	0.00000000000000	0.09192300000000	0.00000000000000	0.00000000000000	0.00000000000000	0.00000000000000	0.00000000000000	0.00000000000000	0.00000000000000	26.78930400000000	0.00000000000000	0.00000000000000	0.00000000000000	0.00000000000000	
11.62829400000000	9.74251600000000	706.21511499999997	45.34881500000000	0.29715900000000	0.00000000000000	0.09187700000000	0.00000000000000	0.00000000000000	0.00000000000000	0.00000000000000	0.00000000000000	0.00000000000000	0.00000000000000	26.90117700000000	0.00000000000000	0.00000000000000	0.00000000000000	0.00000000000000	
11.62996900000000	9.23082600000000	707.45580399999994	45.42049400000000	0.29642000000000	0.00000000000000	0.09183200000000	0.00000000000000	0.00000000000000	0.00000000000000	0.00000000000000	0.00000000000000	0.00000000000000	0.00000000000000	27.01537600000000	0.00000000000000	0.00000000000000	0.00000000000000	0.00000000000000	
11.63162200000000	8.70775600000000	708.73325199999999	45.49299400000000	0.29566700000000	0.00000000000000	0.09178700000000	0.00000000000000	0.00000000000000	0.00000000000000	0.00000000000000	0.00000000000000	0.00000000000000	0.00000000000000	27.13179400000000	0.00000000000000	0.00000000000000	0.00000000000000	0.00000000000000	
11.63328800000000	8.17337500000000	710.04704300000003	45.56631000000000	0.29489800000000	0.00000000000000	0.09174300000000	0.00000000000000	0.00000000000000	0.00000000000000	0.00000000000000	0.00000000000000	0.00000000000000	0.00000000000000	27.25033300000000	0.00000000000000	0.00000000000000	0.00000000000000	0.00000000000000	
11.63499800000000	7.62777900000000	711.39675099999999	45.64046400000000	0.29411300000000	0.00000000000000	0.09170000000000	0.00000000000000	0.00000000000000	0.00000000000000	0.00000000000000	0.00000000000000	0.00000000000000	0.00000000000000	27.37090100000000	0.00000000000000	0.00000000000000	0.00000000000000	0.00000000000000	
11.63662700000000	7.07109500000000	712.78194399999995	45.71549700000000	0.29331200000000	0.00000000000000	0.09165900000000	0.00000000000000	0.00000000000000	0.00000000000000	0.00000000000000	0.00000000000000	0.00000000000000	0.00000000000000	27.49341700000000	0.00000000000000	0.00000000000000	0.00000000000000	0.00000000000000	
11.63829400000000	6.50348200000000	714.20217200000002	45.79147300000000	0.29249400000000	0.00000000000000	0.09161800000000	0.00000000000000	0.00000000000000	0.00000000000000	0.00000000000000	0.00000000000000	0.00000000000000	0.00000000000000	27.61780300000000	0.00000000000000	0.00000000000000	0.00000000000000	0.00000000000000	
11.63996300000000	5.92512700000000	715.65696800000001	45.86848000000000	0.29166000000000	0.00000000000000	0.09157900000000	0.00000000000000	0.00000000000000	0.00000000000000	0.00000000000000	0.00000000000000	0.00000000000000	0.00000000000000	27.74399400000000	0.00000000000000	0.00000000000000	0.00000000000000	0.00000000000000	
11.64162200000000	5.33624600000000	717.14584200000002	45.94662600000000	0.29080900000000	0.00000000000000	0.09154000000000	0.00000000000000	0.00000000000000	0.00000000000000	0.00000000000000	0.00000000000000	0.00000000000000	0.00000000000000	27.87192800000000	0.00000000000000	0.00000000000000	0.00000000000000	0.00000000000000	
11.64328600000000	4.73708600000000	718.66827499999999	46.02603900000000	0.28994200000000	0.00000000000000	0.09150400000000	0.00000000000000	0.00000000000000	0.00000000000000	0.00000000000000	0.00000000000000	0.00000000000000	0.00000000000000	28.00155100000000	0.00000000000000	0.00000000000000	0.00000000000000	0.00000000000000	
